P3
20 20
255
255 255 255
255 255 255
255 255 255
255 255 255
255 255 255
255 255 255
255 255 255
255 255 255
255 255 255
255 255 255
255 255 255
255 255 255
255 255 255
255 255 255
255 255 255
255 255 255
255 255 255
255 255 255
255 255 255
255 255 255
255 255 255
255 255 255
255 255 255
255 255 255
255 255 255
255 255 255
255 255 255
255 255 255
255 255 255
255 255 255
255 255 255
255 255 255
255 255 255
255 255 255
255 255 255
255 255 255
255 255 255
255 255 255
255 255 255
255 255 255
255 255 255
255 255 255
255 255 255
255 255 255
255 255 255
255 255 255
255 255 255
0 0 0
0 0 0
0 0 0
0 0 0
0 0 0
0 0 0
255 255 255
255 255 255
255 255 255
255 255 255
255 255 255
255 255 255
255 255 255
255 255 255
255 255 255
255 255 255
255 255 255
255 255 255
0 0 0
0 0 0
0 0 0
255 255 255
255 0 0
255 0 0
255 255 255
0 0 0
0 0 0
0 0 0
255 255 255
255 255 255
255 255 255
255 255 255
255 255 255
255 255 255
255 255 255
255 255 255
255 255 255
0 0 0
0 0 0
255 255 255
255 255 255
255 255 255
255 0 0
255 0 0
255 255 255
255 255 255
255 255 255
0 0 0
0 0 0
255 255 255
255 255 255
255 255 255
255 255 255
255 255 255
255 255 255
255 255 255
0 0 0
0 0 0
255 0 0
255 255 255
255 255 255
255 0 0
255 0 0
255 0 0
255 0 0
255 255 255
255 255 255
255 0 0
0 0 0
0 0 0
255 255 255
255 255 255
255 255 255
255 255 255
255 255 255
255 255 255
0 0 0
255 255 255
255 0 0
255 0 0
255 0 0
255 0 0
255 0 0
255 0 0
255 0 0
255 0 0
255 0 0
255 0 0
255 255 255
0 0 0
255 255 255
255 255 255
255 255 255
255 255 255
255 255 255
0 0 0
0 0 0
255 255 255
255 255 255
255 0 0
255 0 0
255 255 255
255 255 255
255 255 255
255 255 255
255 0 0
255 0 0
255 255 255
255 255 255
0 0 0
0 0 0
255 255 255
255 255 255
255 255 255
255 255 255
0 0 0
255 255 255
255 255 255
255 255 255
255 0 0
255 255 255
255 255 255
255 255 255
255 255 255
255 255 255
255 255 255
255 0 0
255 255 255
255 255 255
255 255 255
0 0 0
255 255 255
255 255 255
255 255 255
255 255 255
0 0 0
255 255 255
255 255 255
255 255 255
255 0 0
255 255 255
255 255 255
255 255 255
255 255 255
255 255 255
255 255 255
255 0 0
255 255 255
255 255 255
255 255 255
0 0 0
255 255 255
255 255 255
255 255 255
255 255 255
0 0 0
255 255 255
255 255 255
255 0 0
255 0 0
255 255 255
255 255 255
255 255 255
255 255 255
255 255 255
255 255 255
255 0 0
255 0 0
255 255 255
255 255 255
0 0 0
255 255 255
255 255 255
255 255 255
255 255 255
0 0 0
255 0 0
255 0 0
255 0 0
255 0 0
255 0 0
255 255 255
255 255 255
255 255 255
255 255 255
255 0 0
255 0 0
255 0 0
255 0 0
255 0 0
0 0 0
255 255 255
255 255 255
255 255 255
255 255 255
0 0 0
255 0 0
255 0 0
0 0 0
0 0 0
0 0 0
0 0 0
0 0 0
0 0 0
0 0 0
0 0 0
0 0 0
0 0 0
255 0 0
255 0 0
0 0 0
255 255 255
255 255 255
255 255 255
255 255 255
0 0 0
0 0 0
0 0 0
0 0 0
253 221 202
253 221 202
0 0 0
253 221 202
253 221 202
0 0 0
253 221 202
253 221 202
0 0 0
0 0 0
0 0 0
0 0 0
255 255 255
255 255 255
255 255 255
255 255 255
255 255 255
0 0 0
0 0 0
253 221 202
253 221 202
253 221 202
0 0 0
253 221 202
253 221 202
0 0 0
253 221 202
253 221 202
253 221 202
0 0 0
0 0 0
255 255 255
255 255 255
255 255 255
255 255 255
255 255 255
255 255 255
255 255 255
0 0 0
253 221 202
253 221 202
253 221 202
253 221 202
253 221 202
253 221 202
253 221 202
253 221 202
253 221 202
253 221 202
0 0 0
255 255 255
255 255 255
255 255 255
255 255 255
255 255 255
255 255 255
255 255 255
255 255 255
0 0 0
0 0 0
253 221 202
253 221 202
253 221 202
253 221 202
253 221 202
253 221 202
253 221 202
253 221 202
0 0 0
0 0 0
255 255 255
255 255 255
255 255 255
255 255 255
255 255 255
255 255 255
255 255 255
255 255 255
255 255 255
0 0 0
0 0 0
0 0 0
0 0 0
0 0 0
0 0 0
0 0 0
0 0 0
0 0 0
0 0 0
255 255 255
255 255 255
255 255 255
255 255 255
255 255 255
255 255 255
255 255 255
255 255 255
255 255 255
255 255 255
255 255 255
255 255 255
255 255 255
255 255 255
255 255 255
255 255 255
255 255 255
255 255 255
255 255 255
255 255 255
255 255 255
255 255 255
255 255 255
255 255 255
255 255 255
255 255 255
255 255 255
255 255 255
255 255 255
255 255 255
255 255 255
255 255 255
255 255 255
255 255 255
255 255 255
255 255 255
255 255 255
255 255 255
255 255 255
255 255 255
255 255 255
255 255 255
255 255 255
255 255 255
255 255 255
